<?xml version="1.0" encoding="utf-8"?>
<svg viewBox="77.89 43.342 166.456 67.211" xmlns="http://www.w3.org/2000/svg">
  <defs>
    <linearGradient id="paint0_linear_322_117176" x1="5.77042" y1="-8.80357" x2="38.02" y2="-4.27369" gradientUnits="userSpaceOnUse" gradientTransform="matrix(1, 0, 0, 1, 83.718744, 48.314034)">
      <stop stop-color="#6304FF"/>
      <stop offset="1" stop-color="#23ADF3"/>
    </linearGradient>
    <linearGradient id="paint1_linear_322_117176" x1="156.055" y1="23.9609" x2="43.1759" y2="-1.06791" gradientUnits="userSpaceOnUse" gradientTransform="matrix(1, 0, 0, 1, 83.718744, 48.314034)">
      <stop stop-color="#6304FF"/>
      <stop offset="1" stop-color="#23ADF3"/>
    </linearGradient>
    <linearGradient id="paint2_linear_322_117176" x1="156.055" y1="23.9609" x2="43.1759" y2="-1.06791" gradientUnits="userSpaceOnUse" gradientTransform="matrix(1, 0, 0, 1, 83.718744, 48.314034)">
      <stop stop-color="#6304FF"/>
      <stop offset="1" stop-color="#23ADF3"/>
    </linearGradient>
    <linearGradient id="paint3_linear_322_117176" x1="156.055" y1="23.9609" x2="43.1759" y2="-1.06791" gradientUnits="userSpaceOnUse" gradientTransform="matrix(1, 0, 0, 1, 83.718744, 48.314034)">
      <stop stop-color="#6304FF"/>
      <stop offset="1" stop-color="#23ADF3"/>
    </linearGradient>
    <linearGradient id="paint4_linear_322_117176" x1="156.055" y1="23.9609" x2="43.1759" y2="-1.06791" gradientUnits="userSpaceOnUse" gradientTransform="matrix(1, 0, 0, 1, 83.718744, 48.314034)">
      <stop stop-color="#6304FF"/>
      <stop offset="1" stop-color="#23ADF3"/>
    </linearGradient>
    <linearGradient id="paint5_linear_322_117176" x1="156.055" y1="23.9609" x2="43.1759" y2="-1.06791" gradientUnits="userSpaceOnUse" gradientTransform="matrix(1, 0, 0, 1, 83.718744, 48.314034)">
      <stop stop-color="#6304FF"/>
      <stop offset="1" stop-color="#23ADF3"/>
    </linearGradient>
    <linearGradient id="paint6_linear_322_117176" x1="156.055" y1="23.9609" x2="43.1759" y2="-1.06791" gradientUnits="userSpaceOnUse" gradientTransform="matrix(1, 0, 0, 1, 83.718744, 48.314034)">
      <stop stop-color="#6304FF"/>
      <stop offset="1" stop-color="#23ADF3"/>
    </linearGradient>
  </defs>
  <path fill-rule="evenodd" clip-rule="evenodd" d="M 83.719 49.058 L 83.719 52.108 C 83.719 52.423 83.917 52.703 84.213 52.808 L 94.299 56.391 L 84.194 60.316 C 83.908 60.427 83.72 60.702 83.72 61.008 L 83.72 64.471 C 83.72 64.776 83.907 65.05 84.191 65.162 L 94.581 69.248 L 84.205 73.059 C 83.913 73.167 83.719 73.445 83.719 73.757 L 83.719 76.571 C 83.719 77.094 84.246 77.453 84.733 77.262 L 99.846 71.319 L 114.959 77.262 C 115.447 77.453 115.974 77.094 115.974 76.571 L 115.974 73.757 C 115.974 73.445 115.78 73.167 115.487 73.059 L 105.112 69.248 L 115.502 65.162 C 115.786 65.05 115.973 64.776 115.973 64.471 L 115.973 61.008 C 115.973 60.702 115.784 60.427 115.499 60.316 L 105.393 56.391 L 115.48 52.808 C 115.776 52.703 115.974 52.423 115.974 52.108 L 115.974 49.058 C 115.974 48.535 115.449 48.176 114.962 48.365 L 99.846 54.236 L 84.73 48.365 C 84.244 48.176 83.719 48.535 83.719 49.058 Z M 99.846 58.361 L 89.393 62.074 C 88.738 62.307 88.733 63.231 89.386 63.471 L 99.846 67.314 L 110.307 63.471 C 110.959 63.231 110.954 62.307 110.299 62.074 L 99.846 58.361 Z" fill="url(#paint0_linear_322_117176)"/>
  <path d="M 135.139 76.694 L 124.579 48.314 L 128.866 48.314 L 137.521 71.533 L 137.679 71.533 L 146.295 48.314 L 150.422 48.314 L 139.902 76.694 L 135.139 76.694 Z" fill="url(#paint1_linear_322_117176)"/>
  <path d="M 159.124 76.761 C 157.352 76.761 155.751 76.364 154.322 75.571 C 152.92 74.75 151.795 73.586 150.949 72.078 C 150.102 70.57 149.679 68.744 149.679 66.601 C 149.679 64.511 150.102 62.712 150.949 61.204 C 151.795 59.669 152.893 58.492 154.243 57.671 C 155.592 56.825 157.021 56.401 158.529 56.401 C 160.222 56.401 161.651 56.785 162.815 57.552 C 164.006 58.32 164.905 59.391 165.514 60.767 C 166.123 62.143 166.427 63.744 166.427 65.569 C 166.427 65.94 166.4 66.323 166.347 66.72 C 166.321 67.091 166.281 67.395 166.228 67.633 L 152.814 67.633 L 152.774 64.855 L 162.934 64.855 C 162.934 63.162 162.564 61.852 161.823 60.926 C 161.109 60 160.037 59.537 158.608 59.537 C 157.762 59.537 156.941 59.775 156.148 60.251 C 155.354 60.727 154.693 61.495 154.163 62.553 C 153.661 63.585 153.409 64.934 153.409 66.601 C 153.409 68.215 153.7 69.538 154.282 70.57 C 154.865 71.602 155.619 72.369 156.545 72.872 C 157.497 73.374 158.529 73.626 159.64 73.626 C 160.513 73.626 161.32 73.494 162.061 73.229 C 162.828 72.964 163.569 72.607 164.284 72.157 L 165.673 74.697 C 164.773 75.279 163.768 75.769 162.656 76.166 C 161.572 76.563 160.394 76.761 159.124 76.761 Z" fill="url(#paint2_linear_322_117176)"/>
  <path d="M 170.949 76.694 L 170.949 57.287 L 174.243 57.287 L 174.561 59.985 L 174.68 59.985 C 175.579 59.112 176.545 58.371 177.577 57.763 C 178.609 57.128 179.786 56.81 181.109 56.81 C 183.173 56.81 184.681 57.472 185.634 58.795 C 186.586 60.118 187.063 62.009 187.063 64.47 L 187.063 76.694 L 183.054 76.694 L 183.054 64.986 C 183.054 63.293 182.789 62.089 182.26 61.374 C 181.757 60.634 180.924 60.263 179.76 60.263 C 178.834 60.263 178.014 60.488 177.299 60.938 C 176.611 61.388 175.831 62.049 174.958 62.922 L 174.958 76.694 L 170.949 76.694 Z" fill="url(#paint3_linear_322_117176)"/>
  <path d="M 199.649 76.691 C 197.241 76.691 195.31 75.805 193.855 74.032 C 192.399 72.233 191.672 69.733 191.672 66.531 C 191.672 64.441 192.055 62.642 192.823 61.134 C 193.616 59.599 194.648 58.422 195.918 57.601 C 197.188 56.755 198.538 56.331 199.966 56.331 C 201.104 56.331 202.07 56.53 202.864 56.927 C 203.657 57.297 204.438 57.826 205.205 58.514 L 205.046 55.3 L 205.046 48.372 L 209.055 48.372 L 209.055 76.691 L 205.761 76.691 L 205.443 74.032 L 205.324 74.032 C 204.61 74.746 203.763 75.368 202.784 75.897 C 201.805 76.427 200.76 76.691 199.649 76.691 Z M 200.601 73.357 C 201.422 73.357 202.189 73.172 202.903 72.802 C 203.644 72.405 204.358 71.796 205.046 70.976 L 205.046 61.451 C 204.332 60.79 203.618 60.327 202.903 60.062 C 202.215 59.798 201.501 59.665 200.76 59.665 C 199.834 59.665 199.001 59.943 198.26 60.499 C 197.519 61.028 196.924 61.808 196.474 62.84 C 196.024 63.872 195.799 65.089 195.799 66.491 C 195.799 68.687 196.209 70.381 197.03 71.571 C 197.876 72.762 199.067 73.357 200.601 73.357 Z" fill="url(#paint4_linear_322_117176)"/>
  <path d="M 215.133 76.694 L 215.133 57.287 L 219.141 57.287 L 219.141 76.694 L 215.133 76.694 Z M 217.157 53.635 C 216.469 53.635 215.887 53.411 215.411 52.961 C 214.934 52.485 214.696 51.902 214.696 51.215 C 214.696 50.527 214.934 49.958 215.411 49.508 C 215.887 49.058 216.469 48.833 217.157 48.833 C 217.871 48.833 218.453 49.058 218.903 49.508 C 219.379 49.958 219.617 50.527 219.617 51.215 C 219.617 51.902 219.379 52.485 218.903 52.961 C 218.453 53.411 217.871 53.635 217.157 53.635 Z" fill="url(#paint5_linear_322_117176)"/>
  <path d="M 229.852 76.761 C 228.741 76.761 227.749 76.536 226.876 76.086 C 226.029 75.61 225.354 74.962 224.851 74.142 C 224.375 73.295 224.137 72.303 224.137 71.165 C 224.137 69.075 225.063 67.461 226.915 66.323 C 228.767 65.186 231.717 64.392 235.766 63.942 C 235.766 63.201 235.646 62.5 235.408 61.839 C 235.197 61.177 234.813 60.648 234.257 60.251 C 233.728 59.854 232.987 59.656 232.035 59.656 C 231.003 59.656 230.011 59.854 229.058 60.251 C 228.132 60.648 227.259 61.111 226.439 61.64 L 224.931 58.941 C 225.592 58.518 226.333 58.121 227.153 57.751 C 227.974 57.354 228.847 57.036 229.773 56.798 C 230.725 56.534 231.717 56.401 232.749 56.401 C 234.337 56.401 235.646 56.732 236.678 57.394 C 237.737 58.055 238.517 58.994 239.02 60.211 C 239.523 61.429 239.774 62.897 239.774 64.617 L 239.774 76.761 L 236.48 76.761 L 236.162 74.062 L 236.043 74.062 C 235.17 74.803 234.218 75.438 233.186 75.967 C 232.154 76.497 231.043 76.761 229.852 76.761 Z M 231.082 73.586 C 231.929 73.586 232.723 73.388 233.464 72.991 C 234.204 72.594 234.972 72.025 235.766 71.284 L 235.766 66.482 C 233.834 66.72 232.299 67.038 231.162 67.435 C 230.051 67.831 229.244 68.321 228.741 68.903 C 228.265 69.485 228.026 70.133 228.026 70.848 C 228.026 71.8 228.318 72.501 228.9 72.951 C 229.482 73.374 230.209 73.586 231.082 73.586 Z" fill="url(#paint6_linear_322_117176)"/>
  <text style="white-space: pre; fill: rgb(51, 51, 51); font-family: Arial, sans-serif; font-size: 22px;" x="81.344" y="105.057"> Test Titans 179</text>
</svg>